<mxfile host="app.diagrams.net" agent="Mozilla/5.0 (Windows NT 10.0; Win64; x64) AppleWebKit/537.36 (KHTML, like Gecko) Chrome/140.0.0.0 Safari/537.36" version="28.2.4">
  <diagram name="Página-1" id="m5Xmwx6257ME347K5xNz">
    <mxGraphModel dx="1445" dy="903" grid="1" gridSize="10" guides="1" tooltips="1" connect="1" arrows="1" fold="1" page="1" pageScale="1" pageWidth="1654" pageHeight="2336" math="0" shadow="0">
      <root>
        <mxCell id="0" />
        <mxCell id="1" parent="0" />
        <mxCell id="WJ1Ai5yTPcV2p-_aBd-Y-1" value="BANCO" style="whiteSpace=wrap;html=1;align=center;" parent="1" vertex="1">
          <mxGeometry x="410" y="880" width="140" height="50" as="geometry" />
        </mxCell>
        <mxCell id="WJ1Ai5yTPcV2p-_aBd-Y-2" value="&lt;font style=&quot;vertical-align: inherit;&quot; dir=&quot;auto&quot;&gt;&lt;font style=&quot;vertical-align: inherit;&quot; dir=&quot;auto&quot;&gt;SwiftCode&lt;/font&gt;&lt;/font&gt;" style="ellipse;whiteSpace=wrap;html=1;align=center;fontStyle=4;" parent="1" vertex="1">
          <mxGeometry x="130" y="780" width="100" height="40" as="geometry" />
        </mxCell>
        <mxCell id="WJ1Ai5yTPcV2p-_aBd-Y-3" value="&lt;font style=&quot;vertical-align: inherit;&quot; dir=&quot;auto&quot;&gt;&lt;font style=&quot;vertical-align: inherit;&quot; dir=&quot;auto&quot;&gt;Nome&lt;/font&gt;&lt;/font&gt;" style="ellipse;whiteSpace=wrap;html=1;align=center;" parent="1" vertex="1">
          <mxGeometry x="250" y="690" width="100" height="40" as="geometry" />
        </mxCell>
        <mxCell id="WJ1Ai5yTPcV2p-_aBd-Y-4" value="&lt;font style=&quot;vertical-align: inherit;&quot; dir=&quot;auto&quot;&gt;&lt;font style=&quot;vertical-align: inherit;&quot; dir=&quot;auto&quot;&gt;&lt;font style=&quot;vertical-align: inherit;&quot; dir=&quot;auto&quot;&gt;&lt;font style=&quot;vertical-align: inherit;&quot; dir=&quot;auto&quot;&gt;Rua&lt;/font&gt;&lt;/font&gt;&lt;/font&gt;&lt;/font&gt;" style="ellipse;whiteSpace=wrap;html=1;align=center;" parent="1" vertex="1">
          <mxGeometry x="30" y="1040" width="100" height="40" as="geometry" />
        </mxCell>
        <mxCell id="WJ1Ai5yTPcV2p-_aBd-Y-5" value="&lt;font style=&quot;vertical-align: inherit;&quot; dir=&quot;auto&quot;&gt;&lt;font style=&quot;vertical-align: inherit;&quot; dir=&quot;auto&quot;&gt;&lt;font style=&quot;vertical-align: inherit;&quot; dir=&quot;auto&quot;&gt;&lt;font style=&quot;vertical-align: inherit;&quot; dir=&quot;auto&quot;&gt;&lt;font style=&quot;vertical-align: inherit;&quot; dir=&quot;auto&quot;&gt;&lt;font style=&quot;vertical-align: inherit;&quot; dir=&quot;auto&quot;&gt;NumPorta&lt;/font&gt;&lt;/font&gt;&lt;/font&gt;&lt;/font&gt;&lt;/font&gt;&lt;/font&gt;" style="ellipse;whiteSpace=wrap;html=1;align=center;" parent="1" vertex="1">
          <mxGeometry x="70" y="1140" width="100" height="40" as="geometry" />
        </mxCell>
        <mxCell id="WJ1Ai5yTPcV2p-_aBd-Y-6" value="&lt;font style=&quot;vertical-align: inherit;&quot; dir=&quot;auto&quot;&gt;&lt;font style=&quot;vertical-align: inherit;&quot; dir=&quot;auto&quot;&gt;&lt;font style=&quot;vertical-align: inherit;&quot; dir=&quot;auto&quot;&gt;&lt;font style=&quot;vertical-align: inherit;&quot; dir=&quot;auto&quot;&gt;&lt;font style=&quot;vertical-align: inherit;&quot; dir=&quot;auto&quot;&gt;&lt;font style=&quot;vertical-align: inherit;&quot; dir=&quot;auto&quot;&gt;&lt;font style=&quot;vertical-align: inherit;&quot; dir=&quot;auto&quot;&gt;&lt;font style=&quot;vertical-align: inherit;&quot; dir=&quot;auto&quot;&gt;CodPostal&lt;/font&gt;&lt;/font&gt;&lt;/font&gt;&lt;/font&gt;&lt;/font&gt;&lt;/font&gt;&lt;/font&gt;&lt;/font&gt;" style="ellipse;whiteSpace=wrap;html=1;align=center;" parent="1" vertex="1">
          <mxGeometry x="180" y="1180" width="100" height="40" as="geometry" />
        </mxCell>
        <mxCell id="WJ1Ai5yTPcV2p-_aBd-Y-7" value="&lt;font style=&quot;vertical-align: inherit;&quot; dir=&quot;auto&quot;&gt;&lt;font style=&quot;vertical-align: inherit;&quot; dir=&quot;auto&quot;&gt;&lt;font style=&quot;vertical-align: inherit;&quot; dir=&quot;auto&quot;&gt;&lt;font style=&quot;vertical-align: inherit;&quot; dir=&quot;auto&quot;&gt;&lt;font style=&quot;vertical-align: inherit;&quot; dir=&quot;auto&quot;&gt;&lt;font style=&quot;vertical-align: inherit;&quot; dir=&quot;auto&quot;&gt;&lt;font style=&quot;vertical-align: inherit;&quot; dir=&quot;auto&quot;&gt;&lt;font style=&quot;vertical-align: inherit;&quot; dir=&quot;auto&quot;&gt;&lt;font style=&quot;vertical-align: inherit;&quot; dir=&quot;auto&quot;&gt;&lt;font style=&quot;vertical-align: inherit;&quot; dir=&quot;auto&quot;&gt;Localidade&lt;/font&gt;&lt;/font&gt;&lt;/font&gt;&lt;/font&gt;&lt;/font&gt;&lt;/font&gt;&lt;/font&gt;&lt;/font&gt;&lt;/font&gt;&lt;/font&gt;&lt;span style=&quot;color: rgba(0, 0, 0, 0); font-family: monospace; font-size: 0px; text-align: start; text-wrap-mode: nowrap;&quot;&gt;&lt;font style=&quot;vertical-align: inherit;&quot; dir=&quot;auto&quot;&gt;&lt;font style=&quot;vertical-align: inherit;&quot; dir=&quot;auto&quot;&gt;%3CmxGraphModel%3E%3Croot%3E%3CmxCell%20id%3D%220%22%2F%3E%3CmxCell%20id%3D%221%22%20parent%3D%220%22%2F%3E%3CmxCell%20id%3D%222%22%20value%3D%22%26lt%3Bfont%20style%3D%26quot%3Bvertical-align n%3A%20herdar%3B%26quot%3B%20dir%3D%26quot%3Bauto%26quot%3B%26gt%3B%26lt%3Bfonte%20estilo%3D%26quot%3Balinhamento-vertical%3A%20herdar%3B%26quot%3B%20dir%3D%26quot%3Bauto%26quot%3B%26gt%3B%26lt%3Bf ont%20style%3D%26quot%3Bvertical-align%3A%20inherit%3B%26quot%3B%20dir%3D%26quot%3Bauto%26quot%3B%26gt%3B%26lt%3Bfont%20style%3D%26quot%3Bvertical-align%3A%20inherit%3B%26quot%3B%20dir%3D%26q uot%3Bauto%26quot%3B%26gt%3B%26lt%3Bfonte%20estilo%3D%26quot%3Balinhamentovertical%3A%20herdar%3B%26quot%3B%20dir%3D%26quot%3Bauto%26quot%3B%26gt%3B%26lt%3Bfonte%20estilo%3D%26quot%3Balinhamentovertical%3A %20herdar%3B%26quot%3B%20dir%3D%26quot%3Bauto%26quot%3B%26gt%3B%26lt%3Bfonte%20estilo%3D%26quot%3Balinhamento-vertical%3A%20herdar%3B%26quot%3B%20dir%3D%26quot%3Bauto%26quot%3B%26gt%3B%26lt%3Bfonte% 20style%3D%26quot%3Bvertical-align%3A%20inherit%3B%26quot%3B%20dir%3D%26quot%3Bauto%26quot%3B%26gt%3BCodPostal%26lt%3B%2Ffont%26gt%3B%26lt%3B%2Ffont%26gt%3B%26lt%3B%2Ffont%26gt%3B%26lt%3B%2Ffont%26gt%3B%26lt%3B%2Ffo nt%26gt%3B%26lt%3B%2Ffont%26gt%3B%26lt%3B%2Ffont%26gt%3B%26lt%3B%2Ffont%26gt%3B%26lt%3B%2Ffont% 26gt% 3B% 22% 20estilo% 3D% 22elipse% 3BwhiteSpace% 3Dwrap% 3Bhtml% 3D1% 3Balign% 3Dcenter% 3B% 22% 20vértice% 3 D%221%22%20pai%3D%221%22%3E%3CmxGeometria%20x%3D%22670%22%20y%3D%22750%22%20largura%3D%22100%22%20altura%3D%2240%22%20as%3D%22geometria%22%2F%3E%3C%2FmxCélula%3E%3C%2Froot%3E%3C%2FmxModeloGráfico%3E&lt;/font&gt;&lt;/font&gt;&lt;/span&gt;" style="ellipse;whiteSpace=wrap;html=1;align=center;" parent="1" vertex="1">
          <mxGeometry x="320" y="1190" width="100" height="40" as="geometry" />
        </mxCell>
        <mxCell id="WJ1Ai5yTPcV2p-_aBd-Y-8" value="&lt;font style=&quot;vertical-align: inherit;&quot; dir=&quot;auto&quot;&gt;&lt;font style=&quot;vertical-align: inherit;&quot; dir=&quot;auto&quot;&gt;Pais&lt;/font&gt;&lt;/font&gt;" style="ellipse;whiteSpace=wrap;html=1;align=center;" parent="1" vertex="1">
          <mxGeometry x="440" y="1160" width="100" height="40" as="geometry" />
        </mxCell>
        <mxCell id="WJ1Ai5yTPcV2p-_aBd-Y-9" value="&lt;font style=&quot;vertical-align: inherit;&quot; dir=&quot;auto&quot;&gt;&lt;font style=&quot;vertical-align: inherit;&quot; dir=&quot;auto&quot;&gt;&lt;font style=&quot;vertical-align: inherit;&quot; dir=&quot;auto&quot;&gt;&lt;font style=&quot;vertical-align: inherit;&quot; dir=&quot;auto&quot;&gt;CapitalSocial&lt;/font&gt;&lt;/font&gt;&lt;/font&gt;&lt;/font&gt;" style="ellipse;whiteSpace=wrap;html=1;align=center;" parent="1" vertex="1">
          <mxGeometry x="440" y="690" width="100" height="40" as="geometry" />
        </mxCell>
        <mxCell id="WJ1Ai5yTPcV2p-_aBd-Y-10" value="" style="endArrow=none;html=1;rounded=0;exitX=0.767;exitY=0.901;exitDx=0;exitDy=0;exitPerimeter=0;entryX=0;entryY=0;entryDx=0;entryDy=0;" parent="1" source="WJ1Ai5yTPcV2p-_aBd-Y-2" target="WJ1Ai5yTPcV2p-_aBd-Y-1" edge="1">
          <mxGeometry relative="1" as="geometry">
            <mxPoint x="670" y="1070" as="sourcePoint" />
            <mxPoint x="830" y="1070" as="targetPoint" />
          </mxGeometry>
        </mxCell>
        <mxCell id="WJ1Ai5yTPcV2p-_aBd-Y-11" value="" style="endArrow=none;html=1;rounded=0;exitX=0;exitY=1;exitDx=0;exitDy=0;entryX=0;entryY=1;entryDx=0;entryDy=0;" parent="1" source="WJ1Ai5yTPcV2p-_aBd-Y-43" target="WJ1Ai5yTPcV2p-_aBd-Y-1" edge="1">
          <mxGeometry relative="1" as="geometry">
            <mxPoint x="326.5" y="962.5999999999999" as="sourcePoint" />
            <mxPoint x="930" y="1100" as="targetPoint" />
          </mxGeometry>
        </mxCell>
        <mxCell id="WJ1Ai5yTPcV2p-_aBd-Y-12" value="" style="endArrow=none;html=1;rounded=0;exitX=0.327;exitY=0.046;exitDx=0;exitDy=0;exitPerimeter=0;entryX=1;entryY=0.5;entryDx=0;entryDy=0;" parent="1" source="WJ1Ai5yTPcV2p-_aBd-Y-4" target="WJ1Ai5yTPcV2p-_aBd-Y-43" edge="1">
          <mxGeometry relative="1" as="geometry">
            <mxPoint x="420" y="1073" as="sourcePoint" />
            <mxPoint x="256" y="990" as="targetPoint" />
          </mxGeometry>
        </mxCell>
        <mxCell id="WJ1Ai5yTPcV2p-_aBd-Y-13" value="" style="endArrow=none;html=1;rounded=0;exitX=0;exitY=0;exitDx=0;exitDy=0;entryX=0.728;entryY=0.008;entryDx=0;entryDy=0;entryPerimeter=0;" parent="1" source="WJ1Ai5yTPcV2p-_aBd-Y-5" target="WJ1Ai5yTPcV2p-_aBd-Y-43" edge="1">
          <mxGeometry relative="1" as="geometry">
            <mxPoint x="427" y="1182" as="sourcePoint" />
            <mxPoint x="280" y="999.9999999999998" as="targetPoint" />
          </mxGeometry>
        </mxCell>
        <mxCell id="WJ1Ai5yTPcV2p-_aBd-Y-14" value="" style="endArrow=none;html=1;rounded=0;exitX=0;exitY=0;exitDx=0;exitDy=0;entryX=0.5;entryY=0;entryDx=0;entryDy=0;" parent="1" source="WJ1Ai5yTPcV2p-_aBd-Y-6" target="WJ1Ai5yTPcV2p-_aBd-Y-43" edge="1">
          <mxGeometry relative="1" as="geometry">
            <mxPoint x="465" y="1256" as="sourcePoint" />
            <mxPoint x="300" y="999.9999999999998" as="targetPoint" />
          </mxGeometry>
        </mxCell>
        <mxCell id="WJ1Ai5yTPcV2p-_aBd-Y-15" value="" style="endArrow=none;html=1;rounded=0;exitX=0;exitY=0;exitDx=0;exitDy=0;entryX=0.215;entryY=0.085;entryDx=0;entryDy=0;entryPerimeter=0;" parent="1" source="WJ1Ai5yTPcV2p-_aBd-Y-8" target="WJ1Ai5yTPcV2p-_aBd-Y-43" edge="1">
          <mxGeometry relative="1" as="geometry">
            <mxPoint x="625" y="1226" as="sourcePoint" />
            <mxPoint x="326.5" y="998" as="targetPoint" />
          </mxGeometry>
        </mxCell>
        <mxCell id="WJ1Ai5yTPcV2p-_aBd-Y-16" value="" style="endArrow=none;html=1;rounded=0;exitX=0;exitY=0.25;exitDx=0;exitDy=0;entryX=0.407;entryY=0.008;entryDx=0;entryDy=0;entryPerimeter=0;exitPerimeter=0;" parent="1" source="WJ1Ai5yTPcV2p-_aBd-Y-7" target="WJ1Ai5yTPcV2p-_aBd-Y-43" edge="1">
          <mxGeometry relative="1" as="geometry">
            <mxPoint x="718" y="1288" as="sourcePoint" />
            <mxPoint x="318.8000000000002" y="1001.0799999999999" as="targetPoint" />
          </mxGeometry>
        </mxCell>
        <mxCell id="WJ1Ai5yTPcV2p-_aBd-Y-17" value="" style="endArrow=none;html=1;rounded=0;exitX=0.5;exitY=1;exitDx=0;exitDy=0;entryX=0.25;entryY=0;entryDx=0;entryDy=0;" parent="1" source="WJ1Ai5yTPcV2p-_aBd-Y-3" target="WJ1Ai5yTPcV2p-_aBd-Y-1" edge="1">
          <mxGeometry relative="1" as="geometry">
            <mxPoint x="770" y="1100" as="sourcePoint" />
            <mxPoint x="930" y="1100" as="targetPoint" />
          </mxGeometry>
        </mxCell>
        <mxCell id="WJ1Ai5yTPcV2p-_aBd-Y-18" value="" style="endArrow=none;html=1;rounded=0;exitX=0.5;exitY=0;exitDx=0;exitDy=0;entryX=0;entryY=1;entryDx=0;entryDy=0;" parent="1" source="WJ1Ai5yTPcV2p-_aBd-Y-1" target="WJ1Ai5yTPcV2p-_aBd-Y-9" edge="1">
          <mxGeometry relative="1" as="geometry">
            <mxPoint x="410" y="790" as="sourcePoint" />
            <mxPoint x="465" y="940" as="targetPoint" />
          </mxGeometry>
        </mxCell>
        <mxCell id="WJ1Ai5yTPcV2p-_aBd-Y-19" value="&lt;font style=&quot;vertical-align: inherit;&quot; dir=&quot;auto&quot;&gt;&lt;font style=&quot;vertical-align: inherit;&quot; dir=&quot;auto&quot;&gt;CLIENTE&lt;/font&gt;&lt;/font&gt;" style="whiteSpace=wrap;html=1;align=center;" parent="1" vertex="1">
          <mxGeometry x="790" y="880" width="130" height="50" as="geometry" />
        </mxCell>
        <mxCell id="WJ1Ai5yTPcV2p-_aBd-Y-20" value="Nome" style="ellipse;whiteSpace=wrap;html=1;align=center;" parent="1" vertex="1">
          <mxGeometry x="610" y="480" width="100" height="40" as="geometry" />
        </mxCell>
        <mxCell id="WJ1Ai5yTPcV2p-_aBd-Y-21" value="DataNascimento" style="ellipse;whiteSpace=wrap;html=1;align=center;" parent="1" vertex="1">
          <mxGeometry x="730" y="440" width="100" height="40" as="geometry" />
        </mxCell>
        <mxCell id="WJ1Ai5yTPcV2p-_aBd-Y-22" value="NumCliente" style="ellipse;whiteSpace=wrap;html=1;align=center;fontStyle=4;rotation=0;" parent="1" vertex="1">
          <mxGeometry x="520" y="570" width="100" height="40" as="geometry" />
        </mxCell>
        <mxCell id="WJ1Ai5yTPcV2p-_aBd-Y-23" value="Género" style="ellipse;whiteSpace=wrap;html=1;align=center;" parent="1" vertex="1">
          <mxGeometry x="860" y="430" width="100" height="40" as="geometry" />
        </mxCell>
        <mxCell id="WJ1Ai5yTPcV2p-_aBd-Y-24" value="VencimentoAnual" style="ellipse;whiteSpace=wrap;html=1;align=center;" parent="1" vertex="1">
          <mxGeometry x="1000" y="430" width="100" height="40" as="geometry" />
        </mxCell>
        <mxCell id="WJ1Ai5yTPcV2p-_aBd-Y-25" value="" style="endArrow=none;html=1;rounded=0;exitX=0.695;exitY=0.994;exitDx=0;exitDy=0;exitPerimeter=0;entryX=0;entryY=0;entryDx=0;entryDy=0;" parent="1" source="WJ1Ai5yTPcV2p-_aBd-Y-22" target="WJ1Ai5yTPcV2p-_aBd-Y-19" edge="1">
          <mxGeometry relative="1" as="geometry">
            <mxPoint x="770" y="1070" as="sourcePoint" />
            <mxPoint x="930" y="1070" as="targetPoint" />
          </mxGeometry>
        </mxCell>
        <mxCell id="WJ1Ai5yTPcV2p-_aBd-Y-26" value="" style="endArrow=none;html=1;rounded=0;exitX=0.5;exitY=1;exitDx=0;exitDy=0;entryX=0.14;entryY=-0.08;entryDx=0;entryDy=0;entryPerimeter=0;" parent="1" source="WJ1Ai5yTPcV2p-_aBd-Y-20" target="WJ1Ai5yTPcV2p-_aBd-Y-19" edge="1">
          <mxGeometry relative="1" as="geometry">
            <mxPoint x="750" y="830" as="sourcePoint" />
            <mxPoint x="870" y="950" as="targetPoint" />
          </mxGeometry>
        </mxCell>
        <mxCell id="WJ1Ai5yTPcV2p-_aBd-Y-27" value="" style="endArrow=none;html=1;rounded=0;exitX=0.282;exitY=0.962;exitDx=0;exitDy=0;entryX=0.352;entryY=0.045;entryDx=0;entryDy=0;entryPerimeter=0;exitPerimeter=0;" parent="1" source="WJ1Ai5yTPcV2p-_aBd-Y-21" target="WJ1Ai5yTPcV2p-_aBd-Y-19" edge="1">
          <mxGeometry relative="1" as="geometry">
            <mxPoint x="820" y="820" as="sourcePoint" />
            <mxPoint x="888" y="976" as="targetPoint" />
          </mxGeometry>
        </mxCell>
        <mxCell id="WJ1Ai5yTPcV2p-_aBd-Y-28" value="" style="endArrow=none;html=1;rounded=0;exitX=0;exitY=0.5;exitDx=0;exitDy=0;entryX=0.602;entryY=0.02;entryDx=0;entryDy=0;entryPerimeter=0;" parent="1" source="WJ1Ai5yTPcV2p-_aBd-Y-23" target="WJ1Ai5yTPcV2p-_aBd-Y-19" edge="1">
          <mxGeometry relative="1" as="geometry">
            <mxPoint x="890" y="740" as="sourcePoint" />
            <mxPoint x="893" y="904" as="targetPoint" />
          </mxGeometry>
        </mxCell>
        <mxCell id="WJ1Ai5yTPcV2p-_aBd-Y-29" value="" style="endArrow=none;html=1;rounded=0;exitX=0;exitY=1;exitDx=0;exitDy=0;entryX=0.75;entryY=0;entryDx=0;entryDy=0;" parent="1" source="WJ1Ai5yTPcV2p-_aBd-Y-24" target="WJ1Ai5yTPcV2p-_aBd-Y-19" edge="1">
          <mxGeometry relative="1" as="geometry">
            <mxPoint x="967" y="790" as="sourcePoint" />
            <mxPoint x="930" y="941" as="targetPoint" />
          </mxGeometry>
        </mxCell>
        <mxCell id="WJ1Ai5yTPcV2p-_aBd-Y-31" value="CONTA" style="whiteSpace=wrap;html=1;align=center;" parent="1" vertex="1">
          <mxGeometry x="1570" y="880" width="130" height="50" as="geometry" />
        </mxCell>
        <mxCell id="WJ1Ai5yTPcV2p-_aBd-Y-32" value="NumConta" style="ellipse;whiteSpace=wrap;html=1;align=center;fontStyle=4;" parent="1" vertex="1">
          <mxGeometry x="1470" y="520" width="110" height="40" as="geometry" />
        </mxCell>
        <mxCell id="WJ1Ai5yTPcV2p-_aBd-Y-33" value="NomeConta" style="ellipse;whiteSpace=wrap;html=1;align=center;" parent="1" vertex="1">
          <mxGeometry x="1720" y="540" width="100" height="40" as="geometry" />
        </mxCell>
        <mxCell id="WJ1Ai5yTPcV2p-_aBd-Y-34" value="DataCriação" style="ellipse;whiteSpace=wrap;html=1;align=center;" parent="1" vertex="1">
          <mxGeometry x="1590" y="520" width="100" height="40" as="geometry" />
        </mxCell>
        <mxCell id="WJ1Ai5yTPcV2p-_aBd-Y-36" value="Saldo" style="ellipse;whiteSpace=wrap;html=1;align=center;" parent="1" vertex="1">
          <mxGeometry x="1830" y="590" width="100" height="40" as="geometry" />
        </mxCell>
        <mxCell id="WJ1Ai5yTPcV2p-_aBd-Y-37" value="" style="endArrow=none;html=1;rounded=0;exitX=0.636;exitY=1;exitDx=0;exitDy=0;exitPerimeter=0;entryX=0;entryY=0;entryDx=0;entryDy=0;" parent="1" source="WJ1Ai5yTPcV2p-_aBd-Y-32" target="WJ1Ai5yTPcV2p-_aBd-Y-31" edge="1">
          <mxGeometry relative="1" as="geometry">
            <mxPoint x="1010" y="1030" as="sourcePoint" />
            <mxPoint x="1170" y="1030" as="targetPoint" />
          </mxGeometry>
        </mxCell>
        <mxCell id="WJ1Ai5yTPcV2p-_aBd-Y-38" value="" style="endArrow=none;html=1;rounded=0;exitX=0.657;exitY=0.962;exitDx=0;exitDy=0;exitPerimeter=0;entryX=0.188;entryY=0.045;entryDx=0;entryDy=0;entryPerimeter=0;" parent="1" source="WJ1Ai5yTPcV2p-_aBd-Y-34" target="WJ1Ai5yTPcV2p-_aBd-Y-31" edge="1">
          <mxGeometry relative="1" as="geometry">
            <mxPoint x="1240" y="760" as="sourcePoint" />
            <mxPoint x="1300" y="880" as="targetPoint" />
          </mxGeometry>
        </mxCell>
        <mxCell id="WJ1Ai5yTPcV2p-_aBd-Y-39" value="" style="endArrow=none;html=1;rounded=0;exitX=0.27;exitY=0.994;exitDx=0;exitDy=0;entryX=0.5;entryY=0;entryDx=0;entryDy=0;exitPerimeter=0;" parent="1" source="WJ1Ai5yTPcV2p-_aBd-Y-33" target="WJ1Ai5yTPcV2p-_aBd-Y-31" edge="1">
          <mxGeometry relative="1" as="geometry">
            <mxPoint x="1310" y="820" as="sourcePoint" />
            <mxPoint x="1338" y="1014" as="targetPoint" />
          </mxGeometry>
        </mxCell>
        <mxCell id="WJ1Ai5yTPcV2p-_aBd-Y-40" value="" style="endArrow=none;html=1;rounded=0;exitX=0;exitY=0.5;exitDx=0;exitDy=0;entryX=0.881;entryY=-0.055;entryDx=0;entryDy=0;entryPerimeter=0;" parent="1" source="WJ1Ai5yTPcV2p-_aBd-Y-36" target="WJ1Ai5yTPcV2p-_aBd-Y-31" edge="1">
          <mxGeometry relative="1" as="geometry">
            <mxPoint x="1419" y="740" as="sourcePoint" />
            <mxPoint x="1400" y="952" as="targetPoint" />
          </mxGeometry>
        </mxCell>
        <mxCell id="WJ1Ai5yTPcV2p-_aBd-Y-43" value="Morada" style="ellipse;whiteSpace=wrap;html=1;align=center;direction=west;" parent="1" vertex="1">
          <mxGeometry x="250" y="950" width="120" height="60" as="geometry" />
        </mxCell>
        <mxCell id="WJ1Ai5yTPcV2p-_aBd-Y-60" value="PERTENCE_A" style="shape=rhombus;perimeter=rhombusPerimeter;whiteSpace=wrap;html=1;align=center;" parent="1" vertex="1">
          <mxGeometry x="630" y="1025" width="120" height="70" as="geometry" />
        </mxCell>
        <mxCell id="WJ1Ai5yTPcV2p-_aBd-Y-61" value="" style="endArrow=none;html=1;rounded=0;exitX=1;exitY=1;exitDx=0;exitDy=0;entryX=0;entryY=0.5;entryDx=0;entryDy=0;" parent="1" source="WJ1Ai5yTPcV2p-_aBd-Y-1" target="WJ1Ai5yTPcV2p-_aBd-Y-60" edge="1">
          <mxGeometry relative="1" as="geometry">
            <mxPoint x="940" y="950" as="sourcePoint" />
            <mxPoint x="1100" y="950" as="targetPoint" />
            <Array as="points">
              <mxPoint x="550" y="1060" />
            </Array>
          </mxGeometry>
        </mxCell>
        <mxCell id="WJ1Ai5yTPcV2p-_aBd-Y-69" value="N" style="edgeLabel;html=1;align=center;verticalAlign=middle;resizable=0;points=[];fontSize=17;" parent="WJ1Ai5yTPcV2p-_aBd-Y-61" vertex="1" connectable="0">
          <mxGeometry x="-0.6333" y="1" relative="1" as="geometry">
            <mxPoint x="9" y="-9" as="offset" />
          </mxGeometry>
        </mxCell>
        <mxCell id="WJ1Ai5yTPcV2p-_aBd-Y-63" value="" style="shape=link;html=1;rounded=0;exitX=1;exitY=0.5;exitDx=0;exitDy=0;entryX=0.5;entryY=1;entryDx=0;entryDy=0;fontSize=14;" parent="1" source="WJ1Ai5yTPcV2p-_aBd-Y-60" target="WJ1Ai5yTPcV2p-_aBd-Y-19" edge="1">
          <mxGeometry relative="1" as="geometry">
            <mxPoint x="940" y="950" as="sourcePoint" />
            <mxPoint x="880" y="970" as="targetPoint" />
            <Array as="points">
              <mxPoint x="855" y="1060" />
            </Array>
          </mxGeometry>
        </mxCell>
        <mxCell id="WJ1Ai5yTPcV2p-_aBd-Y-84" value="M" style="edgeLabel;html=1;align=center;verticalAlign=middle;resizable=0;points=[];fontSize=17;" parent="WJ1Ai5yTPcV2p-_aBd-Y-63" vertex="1" connectable="0">
          <mxGeometry x="0.2249" relative="1" as="geometry">
            <mxPoint x="-25" y="-60" as="offset" />
          </mxGeometry>
        </mxCell>
        <mxCell id="WJ1Ai5yTPcV2p-_aBd-Y-73" value="&lt;font style=&quot;vertical-align: inherit;&quot; dir=&quot;auto&quot;&gt;&lt;font style=&quot;vertical-align: inherit;&quot; dir=&quot;auto&quot;&gt;MOVIMENTOS&lt;/font&gt;&lt;/font&gt;" style="whiteSpace=wrap;html=1;align=center;" parent="1" vertex="1">
          <mxGeometry x="1150" y="880" width="130" height="50" as="geometry" />
        </mxCell>
        <mxCell id="WJ1Ai5yTPcV2p-_aBd-Y-74" value="NumMovimento" style="ellipse;whiteSpace=wrap;html=1;align=center;fontStyle=4;rotation=0;" parent="1" vertex="1">
          <mxGeometry x="970" y="640" width="100" height="40" as="geometry" />
        </mxCell>
        <mxCell id="WJ1Ai5yTPcV2p-_aBd-Y-75" value="Data" style="ellipse;whiteSpace=wrap;html=1;align=center;" parent="1" vertex="1">
          <mxGeometry x="1070" y="600" width="100" height="40" as="geometry" />
        </mxCell>
        <mxCell id="WJ1Ai5yTPcV2p-_aBd-Y-77" value="TipoMovimento" style="ellipse;whiteSpace=wrap;html=1;align=center;" parent="1" vertex="1">
          <mxGeometry x="1200" y="590" width="100" height="40" as="geometry" />
        </mxCell>
        <mxCell id="WJ1Ai5yTPcV2p-_aBd-Y-79" value="Valor" style="ellipse;whiteSpace=wrap;html=1;align=center;" parent="1" vertex="1">
          <mxGeometry x="1330" y="630" width="100" height="40" as="geometry" />
        </mxCell>
        <mxCell id="WJ1Ai5yTPcV2p-_aBd-Y-80" value="" style="endArrow=none;html=1;rounded=0;entryX=0.342;entryY=0.969;entryDx=0;entryDy=0;entryPerimeter=0;exitX=1;exitY=0;exitDx=0;exitDy=0;" parent="1" source="WJ1Ai5yTPcV2p-_aBd-Y-73" target="WJ1Ai5yTPcV2p-_aBd-Y-79" edge="1">
          <mxGeometry relative="1" as="geometry">
            <mxPoint x="1280" y="870" as="sourcePoint" />
            <mxPoint x="1230" y="850" as="targetPoint" />
          </mxGeometry>
        </mxCell>
        <mxCell id="WJ1Ai5yTPcV2p-_aBd-Y-81" value="" style="endArrow=none;html=1;rounded=0;entryX=0.5;entryY=1;entryDx=0;entryDy=0;exitX=0.5;exitY=0;exitDx=0;exitDy=0;" parent="1" source="WJ1Ai5yTPcV2p-_aBd-Y-73" target="WJ1Ai5yTPcV2p-_aBd-Y-77" edge="1">
          <mxGeometry relative="1" as="geometry">
            <mxPoint x="1070" y="850" as="sourcePoint" />
            <mxPoint x="1230" y="850" as="targetPoint" />
          </mxGeometry>
        </mxCell>
        <mxCell id="WJ1Ai5yTPcV2p-_aBd-Y-82" value="" style="endArrow=none;html=1;rounded=0;entryX=0.65;entryY=1.065;entryDx=0;entryDy=0;entryPerimeter=0;exitX=0.25;exitY=0;exitDx=0;exitDy=0;" parent="1" source="WJ1Ai5yTPcV2p-_aBd-Y-73" target="WJ1Ai5yTPcV2p-_aBd-Y-75" edge="1">
          <mxGeometry relative="1" as="geometry">
            <mxPoint x="1070" y="850" as="sourcePoint" />
            <mxPoint x="1230" y="850" as="targetPoint" />
          </mxGeometry>
        </mxCell>
        <mxCell id="WJ1Ai5yTPcV2p-_aBd-Y-83" value="" style="endArrow=none;html=1;rounded=0;exitX=0.5;exitY=1;exitDx=0;exitDy=0;entryX=0;entryY=0;entryDx=0;entryDy=0;" parent="1" source="WJ1Ai5yTPcV2p-_aBd-Y-74" target="WJ1Ai5yTPcV2p-_aBd-Y-73" edge="1">
          <mxGeometry relative="1" as="geometry">
            <mxPoint x="1070" y="850" as="sourcePoint" />
            <mxPoint x="1230" y="850" as="targetPoint" />
          </mxGeometry>
        </mxCell>
        <mxCell id="WJ1Ai5yTPcV2p-_aBd-Y-85" value="CONTA_DE" style="shape=rhombus;perimeter=rhombusPerimeter;whiteSpace=wrap;html=1;align=center;" parent="1" vertex="1">
          <mxGeometry x="1140" y="1250" width="135" height="80" as="geometry" />
        </mxCell>
        <mxCell id="WJ1Ai5yTPcV2p-_aBd-Y-86" value="" style="shape=link;html=1;rounded=0;exitX=1;exitY=1;exitDx=0;exitDy=0;entryX=0;entryY=0.5;entryDx=0;entryDy=0;" parent="1" source="WJ1Ai5yTPcV2p-_aBd-Y-19" target="WJ1Ai5yTPcV2p-_aBd-Y-85" edge="1">
          <mxGeometry relative="1" as="geometry">
            <mxPoint x="1280" y="880" as="sourcePoint" />
            <mxPoint x="1440" y="880" as="targetPoint" />
            <Array as="points">
              <mxPoint x="920" y="1290" />
            </Array>
          </mxGeometry>
        </mxCell>
        <mxCell id="WJ1Ai5yTPcV2p-_aBd-Y-95" value="N" style="edgeLabel;html=1;align=center;verticalAlign=middle;resizable=0;points=[];fontSize=14;" parent="WJ1Ai5yTPcV2p-_aBd-Y-86" vertex="1" connectable="0">
          <mxGeometry x="-0.647" relative="1" as="geometry">
            <mxPoint x="20" y="-72" as="offset" />
          </mxGeometry>
        </mxCell>
        <mxCell id="WJ1Ai5yTPcV2p-_aBd-Y-88" value="" style="shape=link;html=1;rounded=0;exitX=1;exitY=0.5;exitDx=0;exitDy=0;entryX=0.595;entryY=1.037;entryDx=0;entryDy=0;entryPerimeter=0;" parent="1" source="WJ1Ai5yTPcV2p-_aBd-Y-85" target="WJ1Ai5yTPcV2p-_aBd-Y-31" edge="1">
          <mxGeometry relative="1" as="geometry">
            <mxPoint x="910" y="1010" as="sourcePoint" />
            <mxPoint x="1640" y="980" as="targetPoint" />
            <Array as="points">
              <mxPoint x="1650" y="1290" />
            </Array>
          </mxGeometry>
        </mxCell>
        <mxCell id="WJ1Ai5yTPcV2p-_aBd-Y-96" value="M" style="edgeLabel;html=1;align=center;verticalAlign=middle;resizable=0;points=[];fontSize=19;" parent="WJ1Ai5yTPcV2p-_aBd-Y-88" vertex="1" connectable="0">
          <mxGeometry x="0.8803" y="2" relative="1" as="geometry">
            <mxPoint x="34" y="-26" as="offset" />
          </mxGeometry>
        </mxCell>
        <mxCell id="WJ1Ai5yTPcV2p-_aBd-Y-90" value="MOVIMENTOS_DE" style="shape=rhombus;perimeter=rhombusPerimeter;whiteSpace=wrap;html=1;align=center;" parent="1" vertex="1">
          <mxGeometry x="1340" y="1010" width="140" height="70" as="geometry" />
        </mxCell>
        <mxCell id="WJ1Ai5yTPcV2p-_aBd-Y-91" value="" style="shape=link;html=1;rounded=0;exitX=1;exitY=1;exitDx=0;exitDy=0;entryX=0;entryY=0.5;entryDx=0;entryDy=0;" parent="1" source="WJ1Ai5yTPcV2p-_aBd-Y-73" target="WJ1Ai5yTPcV2p-_aBd-Y-90" edge="1">
          <mxGeometry relative="1" as="geometry">
            <mxPoint x="1310" y="930" as="sourcePoint" />
            <mxPoint x="1470" y="930" as="targetPoint" />
            <Array as="points">
              <mxPoint x="1280" y="1045" />
            </Array>
          </mxGeometry>
        </mxCell>
        <mxCell id="WJ1Ai5yTPcV2p-_aBd-Y-92" value="1" style="resizable=0;html=1;whiteSpace=wrap;align=right;verticalAlign=bottom;" parent="WJ1Ai5yTPcV2p-_aBd-Y-91" connectable="0" vertex="1">
          <mxGeometry x="1" relative="1" as="geometry" />
        </mxCell>
        <mxCell id="WJ1Ai5yTPcV2p-_aBd-Y-93" value="" style="endArrow=none;html=1;rounded=0;exitX=1;exitY=0.5;exitDx=0;exitDy=0;entryX=0.25;entryY=1;entryDx=0;entryDy=0;" parent="1" source="WJ1Ai5yTPcV2p-_aBd-Y-90" target="WJ1Ai5yTPcV2p-_aBd-Y-31" edge="1">
          <mxGeometry relative="1" as="geometry">
            <mxPoint x="1310" y="930" as="sourcePoint" />
            <mxPoint x="1603" y="950" as="targetPoint" />
            <Array as="points">
              <mxPoint x="1603" y="1045" />
            </Array>
          </mxGeometry>
        </mxCell>
        <mxCell id="WJ1Ai5yTPcV2p-_aBd-Y-94" value="N" style="resizable=0;html=1;whiteSpace=wrap;align=right;verticalAlign=bottom;fontSize=14;" parent="WJ1Ai5yTPcV2p-_aBd-Y-93" connectable="0" vertex="1">
          <mxGeometry x="1" relative="1" as="geometry">
            <mxPoint x="-13" y="30" as="offset" />
          </mxGeometry>
        </mxCell>
      </root>
    </mxGraphModel>
  </diagram>
</mxfile>
